Coordinates
version=1
nRows=19
nColumns=24
inDegrees=yes

Units are S.I. units (second, meters, Newtons, ...)
Angles are in degrees.

endheader
time	pelvis_tilt	pelvis_list	pelvis_rotation	pelvis_tx	pelvis_ty	pelvis_tz	hip_flexion_r	hip_adduction_r	hip_rotation_r	knee_angle_r	ankle_angle_r	subtalar_angle_r	mtp_angle_r	hip_flexion_l	hip_adduction_l	hip_rotation_l	knee_angle_l	ankle_angle_l	subtalar_angle_l	mtp_angle_l	lumbar_extension	lumbar_bending	lumbar_rotation
      3.17000000	     21.78362333	     -0.92373270	     -0.85625597	     -0.07084808	      0.97374948	      0.04020795	     -0.13702691	     -3.19998124	    -16.73824787	    -27.50577045	     15.52817494	      3.77015988	     19.82777611	    -35.32563898	      5.77834393	    -12.88134237	      4.19117069	     10.24451628	     16.19868881	     13.56124454	    -29.78240655	     -0.49586568	     -1.00955949
      3.17500000	     22.03355310	     -1.14268826	     -0.47488049	     -0.06458979	      0.97345530	      0.04018056	     -0.66475005	     -2.65405194	    -17.44560184	    -24.97689361	     15.23039936	      4.27358050	     19.80655858	    -36.07020499	      5.37984297	    -12.95565856	      4.30549238	     10.48521202	     16.51226758	     13.46093116	    -30.04166316	     -0.14473736	     -1.19548218
      3.18000000	     22.27529837	     -1.34199723	     -0.11578814	     -0.05829173	      0.97307413	      0.04021229	     -1.19355071	     -2.11082090	    -18.12271847	    -22.44530483	     14.87626880	      4.83866629	     19.80595335	    -36.79923950	      5.00574115	    -13.04771027	      4.40594794	     10.73369328	     16.81359361	     13.36742807	    -30.28426144	      0.17577362	     -1.36937932
      3.18500000	     22.49447950	     -1.51913373	      0.21051603	     -0.05195021	      0.97259771	      0.04032010	     -1.69974989	     -1.57621043	    -18.75592334	    -19.93318805	     14.46493654	      5.46689807	     19.82345246	    -37.49556010	      4.66472630	    -13.16767103	      4.48821454	     10.98437848	     17.10343992	     13.28234253	    -30.49482125	      0.45882673	     -1.51869921
      3.19000000	     22.70038823	     -1.67189343	      0.50825981	     -0.04558203	      0.97203192	      0.04050083	     -2.19186241	     -1.05482986	    -19.34452588	    -17.45118439	     14.00161575	      6.15195656	     19.85224090	    -38.17111612	      4.35662702	    -13.29897801	      4.55634356	     11.23824899	     17.36969573	     13.21122177	    -30.68776237	      0.70239828	     -1.65464108
      3.19500000	     22.88409563	     -1.80162303	      0.77346128	     -0.03918107	      0.97138118	      0.04076026	     -2.65995470	     -0.54681694	    -19.87260338	    -15.01213521	     13.47706738	      6.87478716	     19.89294091	    -38.81465443	      4.08216705	    -13.44686965	      4.60435211	     11.49090570	     17.62680048	     13.15070515	    -30.85150611	      0.90678881	     -1.76840989
      3.20000000	     23.05797885	     -1.90356455	      1.00442215	     -0.03276289	      0.97063995	      0.04109120	     -3.10897985	     -0.06473164	    -20.33794682	    -12.64824876	     12.91542400	      7.63219346	     19.94124068	    -39.44296259	      3.84822682	    -13.60627592	      4.63958228	     11.74045216	     17.87476463	     13.10511958	    -31.00297720	      1.06665290	     -1.86095371
      3.20500000	     23.19539840	     -1.96300430	      1.19087451	     -0.02635840	      0.96980712	      0.04150649	     -3.49644541	      0.36744574	    -20.72355495	    -10.39687474	     12.30832686	      8.41138040	     20.00182148	    -40.01817038	      3.67117393	    -13.76357298	      4.64710275	     11.98927453	     18.12126511	     13.06970511	    -31.11788879	      1.16188004	     -1.93790459
      3.21000000	     23.29115140	     -2.02153143	      1.34965877	     -0.01990950	      0.96886328	      0.04197394	     -3.82412677	      0.79365025	    -21.03282877	     -8.26617757	     11.73825769	      9.17085810	     20.03411966	    -40.54891548	      3.51034618	    -13.91685779	      4.64862612	     12.23820734	     18.25738645	     13.06503150	    -31.18327932	      1.24498561	     -1.99694521
      3.21500000	     23.37225261	     -2.04501978	      1.47102529	     -0.01349200	      0.96785973	      0.04250210	     -4.10613786	      1.16567672	    -21.27462698	     -6.28858187	     11.16122087	      9.93948006	     20.04262520	    -41.05422589	      3.39705535	    -14.05952826	      4.63190132	     12.47166736	     18.39578047	     13.08537106	    -31.23845372	      1.27563136	     -2.03132311
      3.22000000	     23.42992067	     -2.04867952	      1.56482267	     -0.00709676	      0.96680302	      0.04307407	     -4.33523799	      1.49814343	    -21.44886748	     -4.47032553	     10.60307953	     10.69024915	     20.02604554	    -41.52308542	      3.31283360	    -14.19203157	      4.59354600	     12.69792028	     18.51692191	     13.12950186	    -31.27370179	      1.27477417	     -2.05322217
      3.22500000	     23.46400872	     -2.04589969	      1.64060676	     -0.00069505	      0.96570745	      0.04366076	     -4.51813382	      1.80328571	    -21.55985175	     -2.80772489	     10.07068947	     11.41412851	     19.97795992	    -41.95782619	      3.24099808	    -14.31095106	      4.53510268	     12.91157168	     18.60655011	     13.19509200	    -31.28289418	      1.26266076	     -2.05637863
      3.23000000	     23.49635819	     -2.03812408	      1.70559696	      0.00570407	      0.96460000	      0.04425565	     -4.67970119	      2.08182584	    -21.62306732	     -1.30527162	      9.57563642	     12.11285178	     19.90042578	    -42.38224702	      3.17563477	    -14.42276304	      4.45959236	     13.11414738	     18.69493481	     13.28687308	    -31.29162123	      1.24480444	     -2.04629745
      3.23500000	     23.51463386	     -2.02667482	      1.76282993	      0.01208986	      0.96348742	      0.04485163	     -4.80538219	      2.33264183	    -21.63366962	      0.03100601	      9.11700872	     12.76402348	     19.78994822	    -42.78027260	      3.11321226	    -14.51527132	      4.36284134	     13.30480065	     18.75869131	     13.40138828	    -31.28944734	      1.22255572	     -2.02897730
      3.24000000	     23.52670749	     -2.02036278	      1.82248199	      0.01849233	      0.96238999	      0.04542467	     -4.90771766	      2.56496668	    -21.61263846	      1.20014316	      8.70160799	     13.36975981	     19.64968321	    -43.16103474	      3.03965293	    -14.59310197	      4.24422451	     13.48022715	     18.81393543	     13.54272594	    -31.27873731	      1.21208094	     -2.00635383
      3.24500000	     23.55286656	     -2.02327851	      1.89050785	      0.02490417	      0.96132380	      0.04596303	     -5.01263811	      2.78435346	    -21.56397911	      2.20796307	      8.33221652	     13.93288207	     19.47439367	    -43.54957592	      2.94882818	    -14.65947592	      4.11090295	     13.63885941	     18.87156584	     13.72041618	    -31.28284555	      1.22007009	     -1.97924565
      3.25000000	     23.58394843	     -2.03502240	      1.96760923	      0.03133232	      0.96029482	      0.04645971	     -5.10887045	      2.98940452	    -21.49391083	      3.04957060	      8.00256307	     14.44348080	     19.25938246	    -43.93208926	      2.84007148	    -14.71351073	      3.95479952	     13.78161293	     18.92479663	     13.94075127	    -31.29214393	      1.24835336	     -1.95420999
      3.25500000	     23.54886161	     -2.00993504	      2.01210216	      0.03771146	      0.95924834	      0.04697090	     -5.09888386	      3.11698163	    -21.33014121	      3.69210942	      7.68639026	     14.85101522	     19.14099473	    -44.21797071	      2.77584468	    -14.70861956	      3.75282541	     13.93538868	     18.89104360	     14.05920013	    -31.23890081	      1.22719127	     -1.91019858
      3.26000000	     23.60939862	     -2.10491848	      2.14881515	      0.04429605	      0.95833833	      0.04730091	     -5.18307516	      3.36140333	    -21.38759738	      4.13665482	      7.64540946	     15.53353480	     17.93001672	    -44.61335965	      2.55067037	    -14.81751404	      3.55890548	     13.92177712	     19.03949480	     15.42063849	    -31.25975143	      1.38476073	     -1.86088726
